# xmcd
#
# Track frame offsets: 
#        150
#        16273
#        29963
#        41255
#        54877
#        66428
#        78937
#        90842
#        104362
#        115322
#        127339
#        139944
#        152362
#        165687
#        177245
#        188988
#        200269
#        211511
#        223633
#        236261
#        247601
#        258766
#        272806
#        284291
#        296992
#        309473
#        321430
#        334297
#
# Disc length: 4614 seconds
#
# Revision: 0
# Processed by: cddbd v1.5.2PL0 Copyright (c) Steve Scherf et al.
# Submitted via: ExactAudioCopy v0.99pb5
#
DISCID=9212041c
DTITLE=Johnny Ace - Ace's wild ! CD1
DYEAR=2012
DGENRE=Blues
TTITLE0=Johnny Ace - Mid Night Hours Journey
TTITLE1=Johnny Ace - My Song
TTITLE2=Johnny Ace - Follow The Rule
TTITLE3=Johnny Ace - Angel
TTITLE4=Johnny Ace - Aces Wild
TTITLE5=Johnny Ace - Cross My Heart
TTITLE6=Johnny Ace - Burley Cutie
TTITLE7=Johnny Ace - The Clock
TTITLE8=Johnny Ace - Please Forgive Me
TTITLE9=Johnny Ace - Saving My Love For You
TTITLE10=Johnny Ace - Yes, Baby with Willie Mae Thornton
TTITLE11=Johnny Ace - Still Love You So
TTITLE12=Johnny Ace - Anymore
TTITLE13=Johnny Ace - So Lonely
TTITLE14=Johnny Ace - You've Been Gone So Long
TTITLE15=Johnny Ace - Pledging My Love
TTITLE16=Johnny Ace - Never Let Me Go
TTITLE17=Johnny Ace - Don't You Know
TTITLE18=Johnny Ace - No Money
TTITLE19=Johnny Ace - How Can You Be So Mean
TTITLE20=Johnny Ace - I'm Crazy Baby
TTITLE21=Johnny Ace - Anymore (overdubbed)
TTITLE22=Johnny Ace - Pleding My Love (overdubbed)
TTITLE23=Frankie Ervin with Jonny Moore's Blazers - Johnny Ace's Last 
TTITLE23=Letter
TTITLE24=Varetta Dillard - Johnny Has Gone
TTITLE25=The Rovers - Salute To Jonny Ace
TTITLE26=Linda Hayes with Jonny Moore's Blazers - Why, Johnny, Why ?
TTITLE27=The Five Wings - Johnny's Still Singing
EXTD=
EXTT0=
EXTT1=
EXTT2=
EXTT3=
EXTT4=
EXTT5=
EXTT6=
EXTT7=
EXTT8=
EXTT9=
EXTT10=
EXTT11=
EXTT12=
EXTT13=
EXTT14=
EXTT15=
EXTT16=
EXTT17=
EXTT18=
EXTT19=
EXTT20=
EXTT21=
EXTT22=
EXTT23=
EXTT24=
EXTT25=
EXTT26=
EXTT27=
PLAYORDER=
